<svg width="129" height="57" viewBox="0 0 129 57" fill="none" xmlns="http://www.w3.org/2000/svg">
<path d="M13.1024 44.5948L13.777 41.2487C13.3438 41.6948 12.9178 42.1066 12.4983 42.4841C12.1409 42.8103 11.7628 43.1319 11.3641 43.4494C10.9655 43.7669 10.6047 44.0029 10.2818 44.1573C9.02472 44.775 7.71842 45.0839 6.36265 45.0839C4.02863 45.0839 2.31722 44.509 1.22765 43.3592C0.134477 42.2267 -0.228627 40.7509 0.138342 38.9321C0.584684 36.7185 1.80233 35.0196 3.79154 33.8357C4.78447 33.2521 5.94336 32.8019 7.26873 32.4841C8.5941 32.1669 10.0875 32.0167 11.7484 32.0337L14.8784 32.0852C14.9101 31.5876 14.8612 31.1073 14.7316 30.644C14.6463 30.3865 14.5135 30.1291 14.3339 29.8717C14.154 29.6142 13.917 29.3656 13.6221 29.1252C13.5776 29.0909 13.533 29.0566 13.4884 29.0223C13.4438 28.9878 13.3992 28.9535 13.3546 28.9193C13.2931 28.885 13.232 28.8463 13.1722 28.8036C13.1121 28.7605 13.0426 28.7221 12.9637 28.6876C12.8506 28.6533 12.7374 28.619 12.6243 28.5848C12.5109 28.5505 12.3808 28.516 12.2331 28.4817H12.0785C11.962 28.4647 11.8445 28.4518 11.7262 28.4433C11.6077 28.4345 11.4628 28.4302 11.2912 28.4302C10.7078 28.4302 10.1189 28.4776 9.52492 28.5719C8.93117 28.6662 8.31475 28.8079 7.67616 28.9966C7.03757 29.1852 6.42707 29.404 5.84466 29.6529C5.26277 29.9016 4.72417 30.1892 4.22938 30.5151L5.21045 25.6505C6.16189 25.1871 7.37928 24.8096 8.86236 24.5179C9.63135 24.3635 10.3851 24.2432 11.1229 24.1574C11.8613 24.0716 12.5906 24.0288 13.3114 24.0288H16.2971C17.2926 24.0288 18.1606 24.2133 18.9014 24.5821C19.6421 24.9511 20.2418 25.4446 20.7007 26.0622C21.1597 26.6799 21.463 27.3878 21.6109 28.1856C21.7589 28.9837 21.7483 29.8031 21.5787 30.644L20.8778 34.1187H20.8523L18.7654 44.5948H13.1024ZM14.6723 35.4058C14.4491 35.4917 14.1059 35.5344 13.6425 35.5344C13.4021 35.5344 13.131 35.5388 12.8289 35.5473C12.5269 35.5558 12.1958 35.5602 11.8352 35.5602C10.0916 35.6117 8.78016 35.8604 7.90088 36.3067C6.97701 36.8043 6.4232 37.5078 6.23972 38.4172C6.09798 39.121 6.25982 39.6786 6.72601 40.0904C7.17492 40.5022 7.91428 40.7081 8.9438 40.7081C10.3338 40.7081 11.5618 40.1932 12.6274 39.1637C13.6897 38.1513 14.3383 37.0615 14.5736 35.8947L14.6723 35.4058Z" fill="#E31E24"/>
<path d="M28.6564 37.1559C28.4279 38.2885 28.4987 39.1293 28.8685 39.6784C29.2554 40.2276 29.9037 40.502 30.8132 40.502C31.3623 40.502 31.8703 40.4505 32.3372 40.3477C32.5537 40.2961 32.7449 40.2405 32.9116 40.1804C33.0781 40.1204 33.2268 40.0645 33.3572 40.0129L32.5877 44.5947C32.4228 44.6462 32.1896 44.6977 31.8873 44.749C31.5852 44.8006 31.2214 44.8606 30.7956 44.9294C29.9511 45.0322 29.0569 45.0838 28.1132 45.0838C25.6591 45.0838 23.9441 44.4831 22.9679 43.282C21.9675 42.1152 21.7098 40.3304 22.194 37.9282L24.6597 25.7018C24.8499 24.7579 25.2625 23.84 25.8972 22.9476C26.5319 22.0552 27.2437 21.2487 28.0325 20.5279C28.8214 19.8072 29.6231 19.2152 30.4372 18.7519C31.2513 18.2886 31.9398 18.0226 32.5029 17.9541L31.2257 24.4147H36.3739L35.4655 28.9191H30.3173L28.6564 37.1559Z" fill="#E31E24"/>
<path d="M38.9217 21.8665C39.0464 21.2485 39.2876 20.6265 39.6456 20.0003C40.0035 19.3738 40.4285 18.7775 40.9202 18.2114C41.4119 17.645 41.9386 17.1172 42.5007 16.6284C43.0625 16.1393 43.616 15.7146 44.1605 15.3541C44.7051 14.9939 45.2127 14.7107 45.6833 14.5048C46.1536 14.2989 46.5347 14.1958 46.8267 14.1958L40.6862 44.6461H34.3281L38.9217 21.8665Z" fill="#E31E24"/>
<path d="M56.8622 44.5948L57.5369 41.2487C57.1037 41.6948 56.6775 42.1066 56.2582 42.4841C55.9005 42.8103 55.5224 43.1319 55.124 43.4494C54.7251 43.7669 54.3646 44.0029 54.0417 44.1573C52.7843 44.775 51.478 45.0839 50.1223 45.0839C47.7885 45.0839 46.0768 44.509 44.9873 43.3592C43.8944 42.2267 43.5313 40.7509 43.898 38.9321C44.3443 36.7185 45.5622 35.0196 47.5512 33.8357C48.5441 33.2521 49.7032 32.8019 51.0286 32.4841C52.3537 32.1669 53.8471 32.0167 55.5083 32.0337L58.6381 32.0852C58.67 31.5876 58.6208 31.1073 58.4914 30.644C58.4059 30.3865 58.2734 30.1291 58.0935 29.8717C57.9139 29.6142 57.6766 29.3656 57.3818 29.1252C57.3372 29.0909 57.2929 29.0566 57.248 29.0223C57.2034 28.9878 57.1591 28.9535 57.1145 28.9193C57.0527 28.885 56.9919 28.8463 56.9318 28.8036C56.872 28.7605 56.8024 28.7221 56.7236 28.6876C56.6105 28.6533 56.4971 28.619 56.3839 28.5848C56.2708 28.5505 56.1404 28.516 55.993 28.4817H55.8384C55.7216 28.4647 55.6041 28.4518 55.4858 28.4433C55.3676 28.4345 55.2225 28.4302 55.0508 28.4302C54.4674 28.4302 53.8785 28.4776 53.2848 28.5719C52.6908 28.6662 52.0744 28.8079 51.4358 28.9966C50.7972 29.1852 50.1867 29.404 49.6045 29.6529C49.0224 29.9016 48.484 30.1892 47.9893 30.5151L48.9703 25.6505C49.9218 25.1871 51.1389 24.8096 52.6222 24.5179C53.3912 24.3635 54.1448 24.2432 54.8828 24.1574C55.6209 24.0716 56.3504 24.0288 57.0712 24.0288H60.057C61.0522 24.0288 61.9202 24.2133 62.6611 24.5821C63.4017 24.9511 64.0016 25.4446 64.4604 26.0622C64.9193 26.6799 65.2229 27.3878 65.3708 28.1856C65.5187 28.9837 65.5079 29.8031 65.3383 30.644L64.6377 34.1187H64.6119L62.5253 44.5948H56.8622ZM58.4319 35.4058C58.2087 35.4917 57.8655 35.5344 57.4021 35.5344C57.1619 35.5344 56.8908 35.5388 56.5888 35.5473C56.2868 35.5558 55.9556 35.5602 55.5951 35.5602C53.8515 35.6117 52.54 35.8604 51.6608 36.3067C50.7366 36.8043 50.1828 37.5078 49.9996 38.4172C49.8576 39.121 50.0197 39.6786 50.4859 40.0904C50.9345 40.5022 51.6739 40.7081 52.7037 40.7081C54.0937 40.7081 55.3214 40.1932 56.387 39.1637C57.4493 38.1513 58.0979 37.0615 58.3335 35.8947L58.4319 35.4058Z" fill="#E31E24"/>
<path d="M78.1909 44.6462L80.5527 32.9346C80.5836 32.78 80.6246 32.4927 80.6749 32.0721C80.7254 31.6518 80.7055 31.2187 80.6153 30.7724C80.5251 30.3263 80.3311 29.9271 80.0329 29.5754C79.735 29.2236 79.2513 29.0479 78.5821 29.0479C77.9128 29.0479 77.2794 29.168 76.6818 29.4081C76.0841 29.6483 75.5345 30.0129 75.0327 30.502C74.5307 30.9911 74.0921 31.6132 73.7166 32.3682C73.3414 33.1233 73.0515 34.0069 72.8474 35.0193L70.9061 44.6462H64.5996L67.4287 30.618C67.598 29.7772 67.9479 28.9577 68.4775 28.1599C69.0076 27.3618 69.6393 26.6539 70.3732 26.0363C71.1069 25.4186 71.9109 24.921 72.7848 24.5435C73.6589 24.1659 74.5335 23.9771 75.4087 23.9771H82.1273C83.1225 23.9771 83.9941 24.1659 84.7417 24.5435C85.4893 24.921 86.0882 25.4186 86.5384 26.0363C86.9888 26.6539 87.2922 27.3618 87.4486 28.1599C87.6053 28.9577 87.5988 29.7772 87.4293 30.618L84.6005 44.6462H78.1909Z" fill="#E31E24"/>
<path d="M94.5284 37.1559C94.3001 38.2885 94.3707 39.1293 94.7405 39.6784C95.1273 40.2276 95.7757 40.502 96.6851 40.502C97.2343 40.502 97.7422 40.4505 98.2092 40.3477C98.4256 40.2961 98.6168 40.2405 98.7836 40.1804C98.95 40.1204 99.0987 40.0645 99.2291 40.0129L98.4596 44.5947C98.2947 44.6462 98.0612 44.6977 97.7592 44.749C97.4572 44.8006 97.0933 44.8606 96.6676 44.9294C95.8231 45.0322 94.9288 45.0838 93.9851 45.0838C91.531 45.0838 89.816 44.4831 88.8398 43.282C87.8397 42.1152 87.5817 40.3304 88.0662 37.9282L90.5317 25.7018C90.7221 24.7579 91.1344 23.84 91.7692 22.9476C92.4039 22.0552 93.1157 21.2487 93.9045 20.5279C94.6933 19.8072 95.4948 19.2152 96.3091 18.7519C97.1232 18.2886 97.8118 18.0226 98.3749 17.9541L97.0977 24.4147H102.246L101.337 28.9191H96.1893L94.5284 37.1559Z" fill="#E31E24"/>
<path fill-rule="evenodd" clip-rule="evenodd" d="M104.233 24.5176H110.334L106.274 44.646H106.326H100.174L104.233 24.5176Z" fill="#E31E24"/>
<path d="M126.294 39.5753L125.313 44.44C125.117 44.4745 124.845 44.5261 124.496 44.5946C124.148 44.6632 123.716 44.7405 123.201 44.8263C122.686 44.9121 122.146 44.9765 121.579 45.0193C121.013 45.0623 120.404 45.0837 119.752 45.0837C116.148 45.0837 113.493 44.1228 111.787 42.2009C110.06 40.2961 109.532 37.6792 110.204 34.3501L110.541 32.6769C110.78 31.4931 111.242 30.3734 111.927 29.3179C112.611 28.2627 113.488 27.2546 114.557 26.2937C115.564 25.3843 116.58 24.7707 117.605 24.4533C118.63 24.1358 119.649 23.9771 120.661 23.9771H125.681C125.973 23.9771 126.28 24.0072 126.602 24.0672C126.925 24.1273 127.24 24.2046 127.547 24.2989C127.854 24.3932 128.131 24.5048 128.38 24.6334C128.629 24.7622 128.835 24.8864 129 25.0068L127.592 29.6913C127.328 29.4682 126.839 29.2538 126.126 29.0479C125.45 28.8247 124.657 28.7131 123.748 28.7131C121.997 28.7131 120.504 29.228 119.266 30.2575C118.012 31.2872 117.211 32.6599 116.866 34.3759C116.502 36.1777 116.745 37.6104 117.595 38.6744C118.478 39.7384 119.821 40.2703 121.623 40.2703C122.653 40.2703 123.592 40.1672 124.44 39.9616C124.872 39.8585 125.258 39.7768 125.596 39.717C125.934 39.657 126.167 39.6096 126.294 39.5753Z" fill="#E31E24"/>
<path d="M104.268 19.0498C104.555 19.2317 104.715 19.3204 105.028 19.4745C105.059 19.4892 105.09 19.5041 105.123 19.5188C104.896 19.4021 104.731 19.3163 104.593 19.242C104.482 19.1787 104.373 19.1137 104.268 19.0498Z" fill="#134477"/>
<path d="M103.714 18.6874C103.716 18.6884 103.717 18.6894 103.719 18.6907C103.577 18.5812 103.418 18.456 103.259 18.3276C103.415 18.4552 103.572 18.5797 103.714 18.6874Z" fill="#134477"/>
<path d="M105.625 19.7383C105.775 19.8009 105.926 19.862 106.057 19.9104C106.052 19.9078 106.047 19.905 106.042 19.9024C105.992 19.8836 105.94 19.8638 105.888 19.8434C105.803 19.8097 105.714 19.7744 105.625 19.7383Z" fill="#134477"/>
<path d="M100.178 13.7735C100.181 13.7831 100.184 13.7926 100.187 13.8021C100.184 13.7921 100.181 13.7818 100.178 13.7715C100.178 13.7723 100.178 13.7728 100.178 13.7735Z" fill="#134477"/>
<path d="M100.575 14.8369C100.606 14.9077 100.638 14.9791 100.672 15.0513C100.563 14.7956 100.45 14.5305 100.342 14.2437C100.419 14.4524 100.5 14.6567 100.575 14.8369Z" fill="#134477"/>
<path d="M116.707 16.7215C116.711 16.7164 116.715 16.7112 116.719 16.7058L116.767 16.6411C116.758 16.6532 116.749 16.6653 116.739 16.6774C116.728 16.6921 116.718 16.7071 116.707 16.7215Z" fill="#134477"/>
<path d="M117.2 15.9943C117.329 15.789 117.43 15.606 117.608 15.2661C117.449 15.5599 117.352 15.74 117.258 15.9C117.239 15.931 117.22 15.9621 117.2 15.9943Z" fill="#134477"/>
<path d="M101.796 5.11572C101.7 5.23787 101.604 5.36079 101.524 5.46773C101.503 5.49942 101.483 5.52932 101.464 5.55818C101.512 5.49066 101.562 5.42109 101.613 5.35203C101.671 5.27601 101.733 5.19586 101.796 5.11572Z" fill="#134477"/>
<path d="M100.853 6.5602C100.841 6.58262 100.83 6.60555 100.818 6.62874C100.943 6.39656 101.028 6.24246 101.11 6.10254C101.029 6.23654 100.953 6.37208 100.853 6.5602Z" fill="#134477"/>
<path d="M116.946 5.66644C116.914 5.6198 116.879 5.56955 116.84 5.51363C116.839 5.5126 116.838 5.51105 116.837 5.50977C116.999 5.75689 117.116 5.93444 117.207 6.07875C117.12 5.93161 117.032 5.79091 116.946 5.66644Z" fill="#134477"/>
<path d="M100.412 7.51349C100.358 7.6511 100.306 7.79978 100.262 7.92399C100.246 7.97218 100.228 8.02423 100.209 8.08196C100.326 7.75804 100.398 7.5573 100.459 7.40088C100.442 7.44031 100.426 7.47741 100.412 7.51349Z" fill="#134477"/>
<path d="M115.907 4.3998C115.886 4.37815 115.863 4.35548 115.84 4.33151C115.818 4.31064 115.797 4.28925 115.774 4.26709C115.99 4.49566 116.14 4.65414 116.257 4.78273C116.142 4.65388 116.018 4.51267 115.907 4.3998Z" fill="#134477"/>
<path d="M110.725 1.63135C115.95 1.63135 120.186 5.84264 120.186 11.0358C120.186 16.2289 115.95 20.4402 110.725 20.4402C105.5 20.4402 101.264 16.2289 101.264 11.0358C101.264 5.84264 105.5 1.63135 110.725 1.63135Z" fill="#2E5AA5"/>
<path d="M105.036 18.1345C107.202 17.957 110.415 16.1353 113.057 13.7812C112.498 13.8167 111.903 13.8877 111.284 14.0178C107.452 14.7513 103.548 17.1526 104.274 17.957C104.286 17.9689 104.298 17.9807 104.31 17.9925C104.346 18.028 104.381 18.0517 104.417 18.0872C104.381 18.0517 104.346 18.0162 104.298 17.9807C104.489 18.099 104.596 18.1345 105.036 18.1345Z" fill="#134477"/>
<path d="M105.798 19.0928C106.083 19.2702 106.25 19.3648 106.56 19.5186C106.595 19.5305 106.619 19.5541 106.655 19.566C106.429 19.4477 106.262 19.3648 106.119 19.2939C106.012 19.2229 105.893 19.1638 105.798 19.0928Z" fill="#134477"/>
<path d="M105.238 18.7377C105.096 18.6312 104.941 18.5011 104.786 18.3828C104.941 18.5011 105.096 18.6312 105.238 18.7377Z" fill="#134477"/>
<path d="M107.154 19.7788C107.309 19.838 107.452 19.8971 107.583 19.9562C107.583 19.9562 107.571 19.9562 107.571 19.9444C107.523 19.9208 107.464 19.9089 107.416 19.8853C107.333 19.8498 107.25 19.8143 107.154 19.7788Z" fill="#134477"/>
<path d="M117.758 16.1709C117.854 15.4848 117.556 14.917 116.949 14.5029C116.14 15.3901 115.224 16.2064 114.271 16.928C115.176 17.0818 115.557 17.5549 115.295 18.1109C115.235 18.241 115.164 18.383 115.057 18.5131C116.009 17.8507 116.949 17.0581 117.758 16.1709Z" fill="#134477"/>
<path d="M119.556 14.4791C119.627 14.3017 119.698 14.1124 119.758 13.9113C119.794 13.793 119.829 13.6629 119.877 13.5091C119.877 13.4854 119.889 13.4736 119.889 13.4499C119.889 13.4381 119.889 13.4381 119.889 13.4263C119.889 13.4381 119.877 13.4499 119.877 13.4736C119.794 13.7693 119.698 14.1124 119.556 14.4791Z" fill="#134477"/>
<path d="M101.692 13.8286C101.692 13.8402 101.704 13.8519 101.704 13.8519C101.692 13.8519 101.692 13.8402 101.692 13.8286Z" fill="#134477"/>
<path d="M102.085 14.8932C102.12 14.9642 102.144 15.0352 102.18 15.1062C102.073 14.8459 101.954 14.5857 101.847 14.3018C101.93 14.5147 102.013 14.7158 102.085 14.8932Z" fill="#134477"/>
<path d="M102.847 11.6991C105.274 11.1194 107.976 9.26219 109.725 7.33398C106.131 8.02009 102.716 9.47512 101.561 10.8118C101.287 11.1312 101.276 11.3087 101.264 11.4151C101.311 11.5808 101.406 11.983 102.847 11.6991Z" fill="#134477"/>
<path d="M118.282 16.7741L118.294 16.7623L118.342 16.7031C118.33 16.715 118.318 16.7268 118.318 16.7386C118.306 16.7386 118.294 16.7623 118.282 16.7741Z" fill="#134477"/>
<path d="M114.426 6.95557C113.843 8.13851 112.832 9.43976 111.392 10.741C112.951 10.5162 114.498 10.4926 115.843 10.7528C116.628 9.67635 117.211 8.58803 117.485 7.54704C116.604 7.20399 115.557 7.01471 114.426 6.95557Z" fill="#134477"/>
<path d="M118.782 16.0527C118.913 15.8516 119.008 15.6623 119.187 15.3311C119.032 15.6268 118.925 15.8042 118.83 15.958C118.818 15.9817 118.794 16.0172 118.782 16.0527Z" fill="#134477"/>
<path d="M119.425 13.8878C119.853 13.0715 120.139 12.2198 120.187 11.3562V11.3681C120.175 11.6638 120.139 12.0424 120.091 12.4446C120.139 12.1015 120.187 11.723 120.199 11.2734C120.175 10.469 119.972 9.79475 119.627 9.23877C119.556 10.2088 119.223 11.1788 118.711 12.1133C119.175 12.6102 119.413 13.2135 119.425 13.8878Z" fill="#134477"/>
<path d="M114.986 4.30569C115.926 4.4713 116.783 4.74338 117.497 5.16924C117.318 4.61326 116.997 4.10459 116.509 3.65507C116.39 3.5486 116.223 3.41848 116.08 3.31202C116.033 3.28836 115.997 3.25287 115.95 3.22921C115.283 2.83883 114.545 2.57859 113.76 2.4248C114.474 2.88615 114.878 3.53677 114.986 4.30569Z" fill="#134477"/>
<path d="M103.311 5.19287C103.216 5.31117 103.12 5.44129 103.037 5.54776C103.013 5.58324 103.001 5.60691 102.978 5.64239C103.025 5.57142 103.073 5.50044 103.132 5.44129C103.192 5.34666 103.251 5.27568 103.311 5.19287Z" fill="#134477"/>
<path d="M110.713 2.47225C110.594 2.40128 110.463 2.35396 110.332 2.30664C109.178 2.42494 108.047 2.68518 107.048 3.01641C107 3.09922 106.976 3.19385 107 3.27666C106.238 3.66703 105.715 3.72618 105.524 3.61971C104.655 4.02192 103.977 4.44778 103.584 4.86181C103.084 5.5006 103.703 5.48877 103.989 5.44145C104.453 5.3823 104.941 5.16938 105.203 5.05108C104.977 5.34682 104.763 5.65438 104.56 5.96195C106.464 5.07474 109.035 4.3768 111.522 4.18753C111.629 3.4541 111.403 2.8508 110.713 2.47225Z" fill="#134477"/>
<path d="M102.359 6.63605C102.347 6.6597 102.335 6.68336 102.323 6.70702C102.454 6.47043 102.537 6.31665 102.621 6.18652C102.537 6.30482 102.466 6.44677 102.359 6.63605Z" fill="#134477"/>
<path d="M118.52 5.73728C118.484 5.68996 118.449 5.64264 118.413 5.5835C118.58 5.83192 118.699 6.00936 118.782 6.15131C118.699 6.00936 118.604 5.8674 118.52 5.73728Z" fill="#134477"/>
<path d="M101.918 7.58254C101.859 7.72449 101.811 7.86645 101.763 7.99657C101.752 8.04389 101.728 8.0912 101.716 8.15035C101.835 7.83096 101.906 7.62986 101.966 7.47607C101.954 7.51156 101.942 7.54705 101.918 7.58254Z" fill="#134477"/>
<path d="M117.485 4.47143C117.461 4.44777 117.437 4.42411 117.413 4.40046C117.389 4.3768 117.366 4.35314 117.342 4.34131C117.556 4.56607 117.711 4.73168 117.83 4.8618C117.711 4.73168 117.592 4.58972 117.485 4.47143Z" fill="#134477"/>
<path d="M116.295 3.45434C116.259 3.43068 116.224 3.40703 116.188 3.38337C116.164 3.35971 116.128 3.34788 116.104 3.32422C116.366 3.52532 116.545 3.65544 116.688 3.76191C116.557 3.66727 116.426 3.54898 116.295 3.45434Z" fill="#134477"/>
<path d="M119.556 14.4081C119.699 14.0414 119.794 13.6984 119.889 13.4026C119.889 13.3908 119.901 13.379 119.901 13.3553C119.949 13.1779 119.984 13.0004 120.02 12.8348C120.032 12.7875 120.032 12.752 120.044 12.7047C120.068 12.5864 120.08 12.4799 120.092 12.3735C120.151 11.9594 120.175 11.5809 120.187 11.297V11.2852C120.127 12.1369 119.854 12.9886 119.425 13.8167C118.997 14.6211 118.425 15.39 117.771 16.0997C116.962 16.987 116.01 17.7795 115.069 18.442C114.534 18.8205 113.986 19.1518 113.463 19.4357C113.463 19.4238 113.475 19.4238 113.475 19.412C112.415 19.9916 111.309 20.2874 110.226 20.3229C110.226 20.3347 110.226 20.3584 110.226 20.3939C110.273 20.4293 110.404 20.4175 110.523 20.4293C110.571 20.4293 110.618 20.4293 110.666 20.4293C110.654 20.4293 110.654 20.4293 110.642 20.4293C110.654 20.4293 110.666 20.4293 110.678 20.4293C110.749 20.4293 110.833 20.4293 110.916 20.4293C110.999 20.4293 111.071 20.4293 111.142 20.4293C111.154 20.4293 111.166 20.4293 111.178 20.4293C111.19 20.4293 111.19 20.4293 111.201 20.4293C111.344 20.4175 111.511 20.4057 111.666 20.3939C111.678 20.3939 111.678 20.3939 111.689 20.3939C111.713 20.3939 111.749 20.3938 111.773 20.382C111.88 20.3702 111.999 20.3584 112.094 20.3465C112.106 20.3465 112.13 20.3465 112.142 20.3347H112.154C112.261 20.3229 112.368 20.2992 112.499 20.2756C112.511 20.2756 112.522 20.2756 112.546 20.2637C112.558 20.2637 112.57 20.2637 112.582 20.2637C112.665 20.2519 112.749 20.2282 112.832 20.2164C112.856 20.2046 112.891 20.2046 112.927 20.1928H112.939C112.975 20.1809 113.01 20.1809 113.046 20.1691C113.141 20.1454 113.213 20.1218 113.26 20.1099C113.356 20.0863 113.439 20.0626 113.522 20.039C113.546 20.0271 113.57 20.0271 113.594 20.0153C113.617 20.0035 113.641 20.0035 113.665 19.9916C113.725 19.968 113.784 19.9562 113.844 19.9325C113.855 19.9325 113.879 19.9207 113.891 19.9207C113.903 19.9207 113.903 19.9207 113.915 19.9088C114.01 19.8734 114.093 19.8497 114.177 19.8142C114.177 19.8142 114.177 19.8142 114.189 19.8142C114.308 19.7669 114.355 19.7551 114.462 19.6959C114.474 19.6841 114.498 19.6841 114.51 19.6723C114.569 19.6486 114.641 19.6131 114.7 19.5894C114.712 19.5894 114.724 19.5776 114.736 19.5776L114.927 19.483C116.14 18.8915 117.235 17.9925 118.187 16.845C118.235 16.7859 118.283 16.7267 118.33 16.6676C118.342 16.6557 118.354 16.6439 118.354 16.6321L118.425 16.5374C118.497 16.431 118.568 16.3363 118.616 16.2535C118.675 16.1707 118.735 16.0761 118.782 15.9815C118.806 15.946 118.818 15.9223 118.842 15.8868C118.937 15.733 119.032 15.5438 119.199 15.2599C119.33 14.9523 119.449 14.6802 119.556 14.4081Z" fill="url(#paint0_linear)"/>
<path d="M119.556 14.4794C119.699 14.1127 119.794 13.7697 119.889 13.4739C119.889 13.4621 119.901 13.4503 119.901 13.4266C119.949 13.2492 119.984 13.0717 120.02 12.9061C120.032 12.8588 120.032 12.8233 120.044 12.776C120.068 12.6577 120.08 12.5512 120.092 12.4448C120.151 12.0307 120.175 11.6522 120.187 11.3683V11.3564C120.127 12.2082 119.854 13.0599 119.425 13.888C118.997 14.6924 118.425 15.4613 117.771 16.171C116.962 17.0583 116.01 17.8508 115.069 18.5133C114.534 18.8918 113.986 19.223 113.463 19.507C113.463 19.4951 113.475 19.4951 113.475 19.4833C112.415 20.0629 111.309 20.3587 110.226 20.3942C110.297 20.4415 110.368 20.477 110.523 20.4888C110.571 20.4888 110.618 20.4888 110.666 20.4888C110.654 20.4888 110.654 20.4888 110.642 20.4888C110.654 20.4888 110.666 20.4888 110.678 20.4888C110.749 20.4888 110.833 20.4888 110.916 20.4888C110.999 20.4888 111.071 20.4888 111.142 20.4888C111.154 20.4888 111.166 20.4888 111.178 20.4888C111.19 20.4888 111.19 20.4888 111.201 20.4888C111.344 20.477 111.511 20.4651 111.666 20.4533C111.678 20.4533 111.678 20.4533 111.689 20.4533C111.713 20.4533 111.749 20.4533 111.773 20.4415C111.88 20.4296 111.999 20.4178 112.094 20.406C112.106 20.406 112.13 20.406 112.142 20.3942H112.154C112.261 20.3823 112.368 20.3587 112.499 20.335C112.511 20.335 112.522 20.335 112.546 20.3232C112.558 20.3232 112.57 20.3232 112.582 20.3114C112.665 20.2995 112.749 20.2759 112.832 20.264C112.856 20.2522 112.891 20.2522 112.927 20.2404H112.939C112.975 20.2285 113.01 20.2286 113.046 20.2167C113.141 20.1931 113.213 20.1694 113.26 20.1576C113.356 20.1339 113.439 20.1103 113.522 20.0866C113.546 20.0748 113.57 20.0748 113.594 20.0629C113.617 20.0511 113.641 20.0511 113.665 20.0393C113.725 20.0156 113.784 20.0038 113.844 19.9801C113.855 19.9801 113.879 19.9683 113.891 19.9683C113.903 19.9683 113.903 19.9683 113.915 19.9565C114.01 19.921 114.093 19.8973 114.177 19.8618C114.177 19.8618 114.177 19.8618 114.189 19.8618C114.308 19.8145 114.355 19.8027 114.462 19.7435C114.474 19.7317 114.498 19.7317 114.51 19.7199C114.569 19.6962 114.641 19.6607 114.7 19.6371C114.712 19.6371 114.724 19.6252 114.736 19.6252L114.927 19.5306C116.14 18.9391 117.235 18.0519 118.187 16.8926C118.235 16.8335 118.283 16.7743 118.33 16.7152C118.342 16.7034 118.354 16.6915 118.354 16.6797L118.425 16.5851C118.497 16.4786 118.568 16.384 118.616 16.3012C118.675 16.2184 118.735 16.1237 118.782 16.0291C118.806 15.9936 118.818 15.9699 118.842 15.9345C118.937 15.7688 119.032 15.5914 119.199 15.3075C119.33 15.0236 119.449 14.7397 119.556 14.4794Z" fill="url(#paint1_linear)"/>
<path d="M116.949 14.432C117.639 13.6749 118.234 12.8823 118.698 12.0543C119.222 11.1198 119.555 10.1497 119.615 9.17972C119.662 8.44629 119.567 7.71286 119.27 6.99127L119.258 6.97944C119.151 6.76651 119.008 6.49443 118.877 6.26967C118.841 6.22235 118.805 6.1632 118.77 6.10406C118.675 5.9621 118.556 5.78466 118.401 5.53624C118.294 5.39429 118.222 5.28782 118.151 5.20502C118.079 5.11038 117.996 5.01575 117.925 4.93294C117.889 4.89745 117.853 4.86196 117.818 4.81464C117.699 4.68452 117.556 4.53073 117.33 4.30597L117.318 4.29414C117.199 4.17585 117.104 4.08121 117.008 4.01024C116.901 3.9156 116.794 3.8328 116.699 3.74999C116.687 3.73816 116.675 3.72633 116.663 3.72633C116.52 3.61987 116.342 3.48974 116.08 3.28864C116.068 3.27681 116.056 3.26498 116.033 3.25315L115.985 3.22949C116.009 3.24132 116.033 3.26498 116.056 3.27681C116.199 3.38328 116.366 3.5134 116.485 3.61987C116.973 4.08122 117.294 4.58988 117.473 5.13404C117.711 5.86746 117.687 6.67187 117.461 7.51176C117.187 8.55276 116.604 9.64107 115.818 10.7175C115.045 11.7704 114.081 12.7995 113.033 13.7341C110.391 16.1 107.178 17.9099 105.012 18.0873C104.56 18.0755 104.465 18.04 104.286 17.9335C104.322 17.969 104.358 18.0045 104.405 18.04C104.417 18.0518 104.417 18.0518 104.429 18.0637C104.536 18.1465 104.643 18.2411 104.762 18.3357C104.917 18.4659 105.084 18.5841 105.226 18.7024C105.238 18.7143 105.25 18.7261 105.262 18.7379C105.345 18.7971 105.429 18.8444 105.5 18.8917C105.583 18.9509 105.679 18.9982 105.774 19.0573C105.881 19.1165 105.988 19.1875 106.095 19.2466C106.238 19.3176 106.405 19.4122 106.631 19.5187C106.654 19.5305 106.678 19.5423 106.702 19.5542C106.738 19.566 106.773 19.5897 106.809 19.6015C106.916 19.6488 107.023 19.6961 107.13 19.7316C107.226 19.7671 107.309 19.8026 107.392 19.8381C107.44 19.8617 107.499 19.8736 107.547 19.8972C107.559 19.8972 107.571 19.909 107.583 19.909L107.607 19.9209C107.63 19.9327 107.642 19.9327 107.666 19.9445C108.82 20.1101 111.641 18.8562 114.235 16.8807C115.223 16.1354 116.152 15.3192 116.949 14.432Z" fill="url(#paint2_linear)"/>
<path d="M116.949 14.5029C117.639 13.7458 118.234 12.9533 118.698 12.1252C119.222 11.1907 119.555 10.2206 119.615 9.25063C119.662 8.5172 119.567 7.78377 119.27 7.06218L119.258 7.05035C119.151 6.83742 119.008 6.56534 118.877 6.34058C118.841 6.29326 118.805 6.23411 118.77 6.17497C118.675 6.03301 118.556 5.85557 118.401 5.60715C118.294 5.4652 118.222 5.35873 118.151 5.27593C118.079 5.18129 117.996 5.08665 117.925 5.00385C117.889 4.96836 117.853 4.92104 117.818 4.88555C117.699 4.75543 117.556 4.60165 117.33 4.36506L117.318 4.35323C117.199 4.23493 117.104 4.1403 117.008 4.06932C116.901 3.97468 116.794 3.89188 116.699 3.80907C116.687 3.79724 116.675 3.78541 116.663 3.78541C116.52 3.67895 116.342 3.54882 116.08 3.34772C116.068 3.33589 116.056 3.32406 116.033 3.31223L115.985 3.28857C116.009 3.3004 116.033 3.32407 116.056 3.33589C116.199 3.44236 116.366 3.57248 116.485 3.67895C116.973 4.1403 117.294 4.64896 117.473 5.19312C117.711 5.92655 117.687 6.73095 117.461 7.57084C117.187 8.61184 116.604 9.70015 115.818 10.7766C115.045 11.8295 114.081 12.8586 113.033 13.7931C110.391 16.159 107.178 17.9689 105.012 18.1464C104.56 18.1346 104.465 18.0991 104.286 17.9926C104.322 18.0281 104.358 18.0636 104.405 18.0991C104.417 18.1109 104.417 18.1109 104.429 18.1227C104.536 18.2055 104.643 18.3002 104.762 18.3948C104.917 18.5249 105.084 18.6432 105.226 18.7615C105.238 18.7733 105.25 18.7852 105.262 18.797C105.345 18.8562 105.429 18.9035 105.5 18.9508C105.583 19.0099 105.679 19.0573 105.774 19.1164C105.881 19.1755 105.988 19.2465 106.095 19.3057C106.238 19.3767 106.405 19.4713 106.631 19.5778C106.654 19.5896 106.678 19.6014 106.702 19.6132C106.738 19.6251 106.773 19.6487 106.809 19.6606C106.916 19.7079 107.023 19.7552 107.13 19.7907C107.226 19.8262 107.309 19.8617 107.392 19.8972C107.44 19.9208 107.499 19.9326 107.547 19.9563C107.559 19.9563 107.571 19.9681 107.583 19.9681L107.607 19.98C107.63 19.9918 107.642 19.9918 107.666 20.0036C108.82 20.1692 111.641 18.9153 114.235 16.9398C115.223 16.2064 116.152 15.3783 116.949 14.5029Z" fill="url(#paint3_linear)"/>
<path d="M105.274 5.01544C105.012 5.13374 104.525 5.34667 104.06 5.40582C103.775 5.44131 103.156 5.45313 103.656 4.82617C103.572 4.93264 103.477 5.05093 103.382 5.16923C103.323 5.25204 103.251 5.33484 103.192 5.40582C103.144 5.4768 103.085 5.54777 103.037 5.60692C103.025 5.63058 103.001 5.65424 102.989 5.67789C102.858 5.86717 102.775 5.99729 102.68 6.15107C102.597 6.29303 102.513 6.44681 102.382 6.67157C102.359 6.70706 102.347 6.74255 102.323 6.78986C102.263 6.89633 102.228 6.99096 102.192 7.07377C102.144 7.16841 102.109 7.26304 102.061 7.36951C102.049 7.39317 102.037 7.41683 102.025 7.45231C101.966 7.6061 101.894 7.8072 101.775 8.1266C101.668 8.63526 102.24 8.7299 103.465 8.4105C104.977 8.02013 106.06 7.51146 106.167 6.15107C106.214 5.77253 106.191 4.64873 105.274 5.01544Z" fill="url(#paint4_linear)"/>
<path d="M105.203 5.03937C104.941 5.15766 104.453 5.37059 103.989 5.42974C103.703 5.46523 103.084 5.48889 103.584 4.8501C103.501 4.95656 103.406 5.07486 103.311 5.19315C103.251 5.27596 103.18 5.35876 103.132 5.42974C103.084 5.50072 103.025 5.5717 102.977 5.63084C102.965 5.6545 102.942 5.67816 102.93 5.70182C102.799 5.89109 102.716 6.02122 102.62 6.175C102.537 6.31695 102.454 6.47074 102.323 6.6955C102.299 6.73098 102.287 6.76647 102.263 6.81379C102.204 6.92026 102.168 7.01489 102.132 7.0977C102.085 7.19233 102.049 7.28697 102.001 7.39343C101.99 7.41709 101.978 7.44075 101.966 7.47624C101.906 7.63002 101.835 7.83112 101.716 8.15052C101.609 8.65919 102.18 8.75382 103.406 8.43443C104.917 8.04405 106 7.53539 106.107 6.175C106.155 5.80829 106.131 4.68449 105.203 5.03937Z" fill="url(#paint5_linear)"/>
<path d="M114.427 6.88468C114.903 5.91466 115.093 5.01562 114.986 4.2467C114.879 3.46596 114.474 2.82717 113.772 2.35399C113.153 1.93996 112.296 1.66788 111.202 1.58507C111.19 1.58507 111.178 1.58507 111.166 1.58507C111.178 1.58507 111.178 1.58507 111.19 1.58507C111.178 1.58507 111.178 1.58507 111.166 1.58507C111.035 1.58507 110.88 1.57324 110.725 1.57324C110.559 1.57324 110.404 1.57324 110.261 1.57324C110.249 1.57324 110.238 1.57324 110.226 1.57324C110.202 1.57324 110.19 1.57324 110.166 1.57324C110.107 1.57324 110.047 1.58507 109.976 1.58507C109.845 1.5969 109.738 1.60873 109.512 1.63239C109.464 1.63239 109.416 1.64422 109.381 1.64422C109.357 1.64422 109.333 1.64422 109.321 1.65605C109.321 1.65605 109.321 1.65605 109.309 1.65605C109.309 1.65605 109.309 1.65605 109.297 1.65605C109.143 1.67971 109.059 1.69154 108.916 1.7152H108.905C108.797 1.73886 108.667 1.76252 108.571 1.78617C108.571 1.78617 108.571 1.78617 108.559 1.78617H108.548C108.488 1.798 108.44 1.80983 108.393 1.82166C108.357 1.83349 108.31 1.84532 108.25 1.85715C108.238 1.85715 108.226 1.86898 108.214 1.86898C108.191 1.86898 108.179 1.88081 108.167 1.88081C108.095 1.90447 108 1.92813 107.893 1.96362C107.822 1.98728 107.738 2.01094 107.679 2.03459C107.655 2.04642 107.631 2.04642 107.607 2.05825C107.595 2.05825 107.595 2.07008 107.584 2.07008C107.476 2.10557 107.393 2.14106 107.31 2.16472H107.298C107.179 2.21203 107.131 2.22387 107.036 2.27118C107.024 2.27118 107.024 2.28301 107.012 2.28301C106.929 2.3185 106.834 2.36582 106.762 2.38948C106.751 2.40131 106.727 2.40131 106.715 2.41314C106.679 2.42496 106.655 2.43679 106.631 2.46045C106.62 2.46045 106.608 2.47228 106.596 2.47228C105.929 2.80351 105.572 3.1229 105.501 3.31218C105.477 3.39498 105.501 3.45413 105.56 3.50145C105.751 3.61974 106.274 3.54877 107.036 3.15839C107.012 3.07559 107.036 2.99278 107.084 2.90997C107.417 2.35399 109.131 1.798 110.368 2.20021C110.499 2.24752 110.63 2.29484 110.749 2.36582C111.428 2.74436 111.666 3.34766 111.559 4.08109C111.428 5.00379 110.749 6.12759 109.761 7.22773C108.024 9.15593 105.31 11.0132 102.883 11.5928C101.431 11.8767 101.336 11.4745 101.3 11.3089C101.312 11.51 101.324 11.7111 101.347 11.9004C101.347 11.924 101.347 11.9595 101.359 11.9832V11.995C101.359 12.0423 101.371 12.0778 101.371 12.1251C101.419 12.5037 101.514 12.9887 101.621 13.3909C101.657 13.5092 101.681 13.6156 101.716 13.7221C101.716 13.7339 101.728 13.7458 101.728 13.7576C101.776 13.9114 101.835 14.0533 101.883 14.1953C101.99 14.4792 102.109 14.7513 102.216 14.9997L102.276 15.1298C102.502 15.4256 102.978 15.3901 103.478 15.3309C103.466 15.2954 103.454 15.2481 103.43 15.2126C103.442 15.2481 103.454 15.2954 103.478 15.3309C106.001 14.9169 108.976 12.7048 110.833 11.1433C111.035 10.9777 111.225 10.8002 111.416 10.6346C112.832 9.36886 113.855 8.06762 114.427 6.88468Z" fill="url(#paint6_linear)"/>
<path d="M114.427 6.95548C114.903 5.98546 115.093 5.08642 114.986 4.3175C114.879 3.53676 114.474 2.89797 113.772 2.42479C113.153 2.01076 112.296 1.73868 111.202 1.65587C111.19 1.65587 111.178 1.65587 111.166 1.65587C111.178 1.65587 111.178 1.65587 111.19 1.65587C111.178 1.65587 111.178 1.65587 111.166 1.65587C111.035 1.65587 110.88 1.64404 110.725 1.64404C110.559 1.64404 110.404 1.64404 110.261 1.64404C110.249 1.64404 110.238 1.64404 110.226 1.64404C110.202 1.64404 110.19 1.64404 110.166 1.64404C110.107 1.64404 110.047 1.65587 109.976 1.65587C109.845 1.6677 109.738 1.67953 109.512 1.70319C109.464 1.70319 109.416 1.71502 109.381 1.71502C109.357 1.71502 109.333 1.72685 109.321 1.72685C109.321 1.72685 109.321 1.72685 109.309 1.72685C109.309 1.72685 109.309 1.72685 109.297 1.72685C109.143 1.75051 109.059 1.76234 108.916 1.786H108.905C108.797 1.80966 108.667 1.83332 108.571 1.85698C108.571 1.85698 108.571 1.85698 108.559 1.85698H108.548C108.488 1.86881 108.44 1.88063 108.393 1.89246C108.357 1.90429 108.31 1.91612 108.25 1.92795C108.238 1.92795 108.226 1.93978 108.214 1.93978C108.191 1.93978 108.179 1.95161 108.167 1.95161C108.095 1.97527 108 1.99893 107.893 2.03442C107.822 2.05808 107.738 2.08173 107.679 2.10539C107.655 2.11722 107.631 2.11722 107.607 2.12905C107.595 2.12905 107.595 2.12905 107.584 2.14088C107.476 2.17637 107.393 2.21186 107.31 2.23552H107.298C107.179 2.28283 107.131 2.29466 107.036 2.34198C107.024 2.34198 107.024 2.35381 107.012 2.35381C106.929 2.3893 106.834 2.43662 106.762 2.46028C106.751 2.47211 106.727 2.47211 106.715 2.48394C106.679 2.49577 106.655 2.50759 106.631 2.53125C106.62 2.53125 106.608 2.54308 106.596 2.54308C105.929 2.87431 105.572 3.19371 105.501 3.38298C105.477 3.46578 105.501 3.52493 105.56 3.57225C105.751 3.67871 106.274 3.61956 107.036 3.22919C107.012 3.14639 107.036 3.06358 107.084 2.96895C107.417 2.41296 109.131 1.85697 110.368 2.25918C110.499 2.30649 110.63 2.35381 110.749 2.42479C111.428 2.80333 111.666 3.40664 111.559 4.14006C111.428 5.06276 110.749 6.18656 109.761 7.2867C108.024 9.21491 105.31 11.0721 102.883 11.6518C101.431 11.9357 101.336 11.5335 101.3 11.3679C101.312 11.569 101.324 11.7701 101.347 11.9593C101.347 11.983 101.347 12.0185 101.359 12.0421V12.054C101.359 12.1013 101.371 12.1368 101.371 12.1841C101.419 12.5626 101.514 13.0477 101.621 13.4499C101.657 13.5682 101.681 13.6746 101.716 13.7811C101.716 13.7929 101.728 13.8047 101.728 13.8166C101.776 13.9704 101.835 14.1123 101.883 14.2543C101.99 14.5382 102.109 14.8102 102.216 15.0587L102.276 15.1888C102.502 15.4845 102.978 15.449 103.478 15.3899C103.466 15.3544 103.454 15.3071 103.43 15.2716C103.442 15.3071 103.454 15.3544 103.478 15.3899C106.001 14.9759 108.976 12.7637 110.833 11.2023C111.035 11.0248 111.225 10.8592 111.416 10.6936C112.832 9.42784 113.855 8.13842 114.427 6.95548Z" fill="url(#paint7_linear)"/>
<path d="M37.2641 49.4079H39.1361C39.6427 49.4079 40.0801 49.4986 40.4481 49.6799C40.8161 49.8559 41.0961 50.1092 41.2881 50.4399C41.4854 50.7652 41.5841 51.1439 41.5841 51.5759C41.5841 51.7839 41.5654 51.9839 41.5281 52.1759C41.3467 53.1092 40.9441 53.8132 40.3201 54.2879C39.7014 54.7626 38.9094 54.9999 37.9441 54.9999H36.0801L37.2641 49.4079ZM38.0561 54.1599C38.7334 54.1599 39.2774 53.9866 39.6881 53.6399C40.0987 53.2932 40.3707 52.8052 40.5041 52.1759C40.5521 51.9572 40.5761 51.7572 40.5761 51.5759C40.5761 51.1546 40.4481 50.8292 40.1921 50.5999C39.9361 50.3652 39.5361 50.2479 38.9921 50.2479H38.1041L37.2721 54.1599H38.0561Z" fill="#E31E24"/>
<path d="M43.8565 55.1199C43.2645 55.1199 42.7925 54.9839 42.4405 54.7119C42.0885 54.4346 41.9125 54.0506 41.9125 53.5599C41.9125 53.4426 41.9312 53.2852 41.9685 53.0879C42.1072 52.4532 42.3925 51.9546 42.8245 51.5919C43.2618 51.2239 43.8325 51.0399 44.5365 51.0399C45.0858 51.0399 45.5098 51.1812 45.8085 51.4639C46.1125 51.7466 46.2645 52.1146 46.2645 52.5679C46.2645 52.7066 46.2485 52.8532 46.2165 53.0079L46.1205 53.4719H42.8485L42.8405 53.5839C42.8405 53.8452 42.9445 54.0346 43.1525 54.1519C43.3605 54.2692 43.6938 54.3279 44.1525 54.3279C44.3978 54.3279 44.6538 54.3066 44.9205 54.2639C45.1872 54.2212 45.4245 54.1626 45.6325 54.0879L45.4645 54.8639C45.2672 54.9386 45.0192 54.9999 44.7205 55.0479C44.4272 55.0959 44.1392 55.1199 43.8565 55.1199ZM45.3125 52.7839C45.3285 52.6932 45.3365 52.6106 45.3365 52.5359C45.3365 52.3012 45.2565 52.1252 45.0965 52.0079C44.9365 51.8906 44.6885 51.8319 44.3525 51.8319C44.0005 51.8319 43.7045 51.9172 43.4645 52.0879C43.2245 52.2586 43.0672 52.4906 42.9925 52.7839H45.3125Z" fill="#E31E24"/>
<path d="M47.8595 49.0879H48.8675L47.6115 54.9999H46.6035L47.8595 49.0879Z" fill="#E31E24"/>
<path d="M50.0923 50.4879C49.9536 50.4879 49.8416 50.4479 49.7563 50.3679C49.6709 50.2826 49.6283 50.1759 49.6283 50.0479C49.6283 49.8612 49.7003 49.7012 49.8443 49.5679C49.9883 49.4292 50.1509 49.3599 50.3323 49.3599C50.4709 49.3599 50.5829 49.4026 50.6683 49.4879C50.7589 49.5679 50.8043 49.6719 50.8043 49.7999C50.8043 49.9866 50.7323 50.1492 50.5883 50.2879C50.4443 50.4212 50.2789 50.4879 50.0923 50.4879ZM49.4443 51.1599H50.4683L49.6523 54.9999H48.6283L49.4443 51.1599Z" fill="#E31E24"/>
<path d="M51.3298 51.1599H52.3138L52.7858 53.8159L54.3938 51.1599H55.4418L53.0418 54.9999H52.0978L51.3298 51.1599Z" fill="#E31E24"/>
<path d="M57.2315 55.1199C56.6395 55.1199 56.1675 54.9839 55.8155 54.7119C55.4635 54.4346 55.2875 54.0506 55.2875 53.5599C55.2875 53.4426 55.3062 53.2852 55.3435 53.0879C55.4822 52.4532 55.7675 51.9546 56.1995 51.5919C56.6369 51.2239 57.2075 51.0399 57.9115 51.0399C58.4608 51.0399 58.8848 51.1812 59.1835 51.4639C59.4875 51.7466 59.6395 52.1146 59.6395 52.5679C59.6395 52.7066 59.6235 52.8532 59.5915 53.0079L59.4955 53.4719H56.2235L56.2155 53.5839C56.2155 53.8452 56.3195 54.0346 56.5275 54.1519C56.7355 54.2692 57.0688 54.3279 57.5275 54.3279C57.7728 54.3279 58.0288 54.3066 58.2955 54.2639C58.5622 54.2212 58.7995 54.1626 59.0075 54.0879L58.8395 54.8639C58.6422 54.9386 58.3942 54.9999 58.0955 55.0479C57.8022 55.0959 57.5142 55.1199 57.2315 55.1199ZM58.6875 52.7839C58.7035 52.6932 58.7115 52.6106 58.7115 52.5359C58.7115 52.3012 58.6315 52.1252 58.4715 52.0079C58.3115 51.8906 58.0635 51.8319 57.7275 51.8319C57.3755 51.8319 57.0795 51.9172 56.8395 52.0879C56.5995 52.2586 56.4422 52.4906 56.3675 52.7839H58.6875Z" fill="#E31E24"/>
<path d="M60.7945 51.1599H61.7705L61.6345 51.7759C61.8318 51.5679 62.0852 51.4132 62.3945 51.3119C62.7038 51.2106 63.0425 51.1599 63.4105 51.1599L63.2425 51.9279C62.8532 51.9279 62.5012 51.9892 62.1865 52.1119C61.8772 52.2292 61.6398 52.4159 61.4745 52.6719L60.9865 54.9999H59.9785L60.7945 51.1599Z" fill="#E31E24"/>
<path d="M64.7563 50.4879C64.6177 50.4879 64.5057 50.4479 64.4203 50.3679C64.335 50.2826 64.2923 50.1759 64.2923 50.0479C64.2923 49.8612 64.3643 49.7012 64.5083 49.5679C64.6523 49.4292 64.815 49.3599 64.9963 49.3599C65.135 49.3599 65.247 49.4026 65.3323 49.4879C65.423 49.5679 65.4683 49.6719 65.4683 49.7999C65.4683 49.9866 65.3963 50.1492 65.2523 50.2879C65.1083 50.4212 64.943 50.4879 64.7563 50.4879ZM64.1083 51.1599H65.1323L64.3163 54.9999H63.2923L64.1083 51.1599Z" fill="#E31E24"/>
<path d="M66.1539 51.1599H67.1299L67.0179 51.6799C67.2419 51.4772 67.4926 51.3199 67.7699 51.2079C68.0526 51.0959 68.3272 51.0399 68.5939 51.0399C69.0046 51.0399 69.3166 51.1492 69.5299 51.3679C69.7432 51.5812 69.8499 51.8586 69.8499 52.1999C69.8499 52.3066 69.8366 52.4319 69.8099 52.5759L69.2979 54.9999H68.2899L68.7779 52.6719C68.8046 52.5386 68.8179 52.4319 68.8179 52.3519C68.8179 52.1759 68.7672 52.0452 68.6659 51.9599C68.5646 51.8746 68.4019 51.8319 68.1779 51.8319C67.9486 51.8319 67.7192 51.8879 67.4899 51.9999C67.2659 52.1066 67.0606 52.2692 66.8739 52.4879L66.3459 54.9999H65.3379L66.1539 51.1599Z" fill="#E31E24"/>
<path d="M71.8927 56.8399C71.6314 56.8399 71.3727 56.8159 71.1167 56.7679C70.8607 56.7199 70.658 56.6559 70.5087 56.5759L70.6767 55.7759C71.0554 55.9572 71.506 56.0479 72.0287 56.0479C72.5034 56.0479 72.8634 55.9519 73.1087 55.7599C73.354 55.5679 73.5167 55.2719 73.5967 54.8719L73.6447 54.6239C73.4314 54.7892 73.1914 54.9146 72.9247 54.9999C72.658 55.0799 72.378 55.1199 72.0847 55.1199C71.7647 55.1199 71.4794 55.0559 71.2287 54.9279C70.978 54.7946 70.7807 54.6079 70.6367 54.3679C70.4927 54.1279 70.4207 53.8506 70.4207 53.5359C70.4207 53.3866 70.4367 53.2319 70.4687 53.0719C70.5967 52.4479 70.8794 51.9546 71.3167 51.5919C71.754 51.2239 72.29 51.0399 72.9247 51.0399C73.2447 51.0399 73.5167 51.0879 73.7407 51.1839C73.97 51.2746 74.1647 51.4159 74.3247 51.6079L74.4207 51.1599H75.3967L74.6287 54.7679C74.4847 55.4612 74.1967 55.9786 73.7647 56.3199C73.3327 56.6666 72.7087 56.8399 71.8927 56.8399ZM72.4687 54.3279C72.7567 54.3279 73.0314 54.2506 73.2927 54.0959C73.554 53.9359 73.754 53.7252 73.8927 53.4639L74.0607 52.6879C74.0234 52.4212 73.914 52.2132 73.7327 52.0639C73.5514 51.9092 73.3087 51.8319 73.0047 51.8319C72.6154 51.8319 72.2847 51.9439 72.0127 52.1679C71.746 52.3919 71.5727 52.6932 71.4927 53.0719C71.466 53.1839 71.4527 53.3092 71.4527 53.4479C71.4527 53.7306 71.538 53.9492 71.7087 54.1039C71.8794 54.2532 72.1327 54.3279 72.4687 54.3279Z" fill="#E31E24"/>
<path d="M79.9038 50.4879C79.7652 50.4879 79.6532 50.4479 79.5678 50.3679C79.4825 50.2826 79.4398 50.1759 79.4398 50.0479C79.4398 49.8666 79.5118 49.7092 79.6558 49.5759C79.7998 49.4372 79.9625 49.3679 80.1438 49.3679C80.2772 49.3679 80.3865 49.4106 80.4718 49.4959C80.5625 49.5759 80.6078 49.6799 80.6078 49.8079C80.6078 49.9892 80.5358 50.1492 80.3918 50.2879C80.2478 50.4212 80.0852 50.4879 79.9038 50.4879ZM77.5838 56.8479C77.3278 56.8479 77.1118 56.8132 76.9358 56.7439L77.1118 55.9279C77.2398 55.9919 77.3972 56.0239 77.5838 56.0239C77.8025 56.0239 77.9758 55.9679 78.1038 55.8559C78.2318 55.7492 78.3198 55.5786 78.3678 55.3439L79.2638 51.1599H80.2718L79.3598 55.4479C79.2585 55.9226 79.0558 56.2746 78.7518 56.5039C78.4478 56.7332 78.0585 56.8479 77.5838 56.8479Z" fill="#E31E24"/>
<path d="M82.5345 55.1199C81.9745 55.1199 81.5238 54.9812 81.1825 54.7039C80.8412 54.4212 80.6705 54.0372 80.6705 53.5519C80.6705 53.4346 80.6892 53.2772 80.7265 53.0799C80.8545 52.4506 81.1532 51.9546 81.6225 51.5919C82.0972 51.2239 82.6918 51.0399 83.4065 51.0399C83.9718 51.0399 84.4225 51.1839 84.7585 51.4719C85.0998 51.7546 85.2705 52.1412 85.2705 52.6319C85.2705 52.7706 85.2545 52.9199 85.2225 53.0799C85.0838 53.7199 84.7798 54.2212 84.3105 54.5839C83.8412 54.9412 83.2492 55.1199 82.5345 55.1199ZM82.7025 54.3279C83.0705 54.3279 83.3878 54.2132 83.6545 53.9839C83.9265 53.7492 84.1025 53.4479 84.1825 53.0799C84.2145 52.9359 84.2305 52.7999 84.2305 52.6719C84.2305 52.1119 83.8998 51.8319 83.2385 51.8319C82.8652 51.8319 82.5452 51.9439 82.2785 52.1679C82.0172 52.3866 81.8465 52.6906 81.7665 53.0799C81.7345 53.2239 81.7185 53.3546 81.7185 53.4719C81.7185 53.7439 81.7985 53.9546 81.9585 54.1039C82.1185 54.2532 82.3665 54.3279 82.7025 54.3279Z" fill="#E31E24"/>
<path d="M86.8433 56.8399C86.582 56.8399 86.3233 56.8159 86.0673 56.7679C85.8113 56.7199 85.6087 56.6559 85.4593 56.5759L85.6273 55.7759C86.006 55.9572 86.4567 56.0479 86.9793 56.0479C87.4433 56.0479 87.79 55.9519 88.0193 55.7599C88.254 55.5732 88.43 55.2772 88.5473 54.8719L88.6833 54.3759C88.2407 54.8026 87.7153 55.0159 87.1073 55.0159C86.6967 55.0159 86.3847 54.9146 86.1713 54.7119C85.958 54.5039 85.8513 54.2239 85.8513 53.8719C85.8513 53.7226 85.8647 53.5919 85.8913 53.4799L86.3873 51.1599H87.3953L86.9233 53.3839C86.8967 53.5279 86.8833 53.6399 86.8833 53.7199C86.8833 53.8959 86.934 54.0239 87.0353 54.1039C87.1367 54.1839 87.2993 54.2239 87.5233 54.2239C87.7527 54.2239 87.9793 54.1706 88.2033 54.0639C88.4327 53.9519 88.6407 53.7866 88.8273 53.5679L89.3393 51.1599H90.3473L89.5793 54.7679C89.43 55.4612 89.1393 55.9786 88.7073 56.3199C88.2807 56.6666 87.6593 56.8399 86.8433 56.8399Z" fill="#E31E24"/>
<path d="M94.963 56.8399C94.7017 56.8399 94.443 56.8159 94.187 56.7679C93.931 56.7199 93.7283 56.6559 93.579 56.5759L93.747 55.7759C94.1257 55.9572 94.5763 56.0479 95.099 56.0479C95.5737 56.0479 95.9337 55.9519 96.179 55.7599C96.4243 55.5679 96.587 55.2719 96.667 54.8719L96.715 54.6239C96.5017 54.7892 96.2617 54.9146 95.995 54.9999C95.7283 55.0799 95.4483 55.1199 95.155 55.1199C94.835 55.1199 94.5497 55.0559 94.299 54.9279C94.0483 54.7946 93.851 54.6079 93.707 54.3679C93.563 54.1279 93.491 53.8506 93.491 53.5359C93.491 53.3866 93.507 53.2319 93.539 53.0719C93.667 52.4479 93.9497 51.9546 94.387 51.5919C94.8243 51.2239 95.3603 51.0399 95.995 51.0399C96.315 51.0399 96.587 51.0879 96.811 51.1839C97.0403 51.2746 97.235 51.4159 97.395 51.6079L97.491 51.1599H98.467L97.699 54.7679C97.555 55.4612 97.267 55.9786 96.835 56.3199C96.403 56.6666 95.779 56.8399 94.963 56.8399ZM95.539 54.3279C95.827 54.3279 96.1017 54.2506 96.363 54.0959C96.6243 53.9359 96.8243 53.7252 96.963 53.4639L97.131 52.6879C97.0937 52.4212 96.9843 52.2132 96.803 52.0639C96.6217 51.9092 96.379 51.8319 96.075 51.8319C95.6857 51.8319 95.355 51.9439 95.083 52.1679C94.8163 52.3919 94.643 52.6932 94.563 53.0719C94.5363 53.1839 94.523 53.3092 94.523 53.4479C94.523 53.7306 94.6083 53.9492 94.779 54.1039C94.9497 54.2532 95.203 54.3279 95.539 54.3279Z" fill="#E31E24"/>
<path d="M99.8673 49.0879H100.875L99.6193 54.9999H98.6113L99.8673 49.0879Z" fill="#E31E24"/>
<path d="M102.636 55.1199C102.076 55.1199 101.625 54.9812 101.284 54.7039C100.943 54.4212 100.772 54.0372 100.772 53.5519C100.772 53.4346 100.791 53.2772 100.828 53.0799C100.956 52.4506 101.255 51.9546 101.724 51.5919C102.199 51.2239 102.793 51.0399 103.508 51.0399C104.073 51.0399 104.524 51.1839 104.86 51.4719C105.201 51.7546 105.372 52.1412 105.372 52.6319C105.372 52.7706 105.356 52.9199 105.324 53.0799C105.185 53.7199 104.881 54.2212 104.412 54.5839C103.943 54.9412 103.351 55.1199 102.636 55.1199ZM102.804 54.3279C103.172 54.3279 103.489 54.2132 103.756 53.9839C104.028 53.7492 104.204 53.4479 104.284 53.0799C104.316 52.9359 104.332 52.7999 104.332 52.6719C104.332 52.1119 104.001 51.8319 103.34 51.8319C102.967 51.8319 102.647 51.9439 102.38 52.1679C102.119 52.3866 101.948 52.6906 101.868 53.0799C101.836 53.2239 101.82 53.3546 101.82 53.4719C101.82 53.7439 101.9 53.9546 102.06 54.1039C102.22 54.2532 102.468 54.3279 102.804 54.3279Z" fill="#E31E24"/>
<path d="M108.06 55.1199C107.734 55.1199 107.465 55.0772 107.252 54.9919C107.038 54.9012 106.841 54.7546 106.66 54.5519L106.572 54.9999H105.596L106.852 49.0879H107.86L107.34 51.5359C107.548 51.3706 107.79 51.2479 108.068 51.1679C108.35 51.0826 108.638 51.0399 108.932 51.0399C109.252 51.0399 109.534 51.1039 109.78 51.2319C110.03 51.3599 110.225 51.5439 110.364 51.7839C110.502 52.0186 110.572 52.2906 110.572 52.5999C110.572 52.7706 110.553 52.9332 110.516 53.0879C110.388 53.7119 110.105 54.2079 109.668 54.5759C109.23 54.9386 108.694 55.1199 108.06 55.1199ZM107.98 54.3279C108.342 54.3279 108.665 54.2132 108.948 53.9839C109.236 53.7546 109.417 53.4559 109.492 53.0879C109.518 52.9439 109.532 52.8212 109.532 52.7199C109.532 52.4426 109.446 52.2266 109.276 52.0719C109.105 51.9119 108.852 51.8319 108.516 51.8319C108.228 51.8319 107.953 51.9119 107.692 52.0719C107.43 52.2266 107.23 52.4346 107.092 52.6959L106.924 53.4719C106.961 53.7332 107.073 53.9412 107.26 54.0959C107.452 54.2506 107.692 54.3279 107.98 54.3279Z" fill="#E31E24"/>
<path d="M112.545 55.1199C112.225 55.1199 111.94 55.0586 111.689 54.9359C111.444 54.8079 111.249 54.6266 111.105 54.3919C110.966 54.1572 110.897 53.8826 110.897 53.5679C110.897 53.4026 110.916 53.2426 110.953 53.0879C111.038 52.6879 111.198 52.3332 111.433 52.0239C111.668 51.7092 111.956 51.4666 112.297 51.2959C112.638 51.1252 113.012 51.0399 113.417 51.0399C114.041 51.0399 114.502 51.2052 114.801 51.5359L114.881 51.1599H115.889L115.073 54.9999H114.097L114.185 54.5519C113.977 54.7492 113.74 54.8932 113.473 54.9839C113.206 55.0746 112.897 55.1199 112.545 55.1199ZM112.961 54.3279C113.249 54.3279 113.521 54.2506 113.777 54.0959C114.033 53.9412 114.236 53.7332 114.385 53.4719L114.553 52.6959C114.526 52.4292 114.422 52.2186 114.241 52.0639C114.06 51.9092 113.812 51.8319 113.497 51.8319C113.118 51.8319 112.788 51.9492 112.505 52.1839C112.228 52.4132 112.052 52.7146 111.977 53.0879C111.95 53.2372 111.937 53.3599 111.937 53.4559C111.937 54.0372 112.278 54.3279 112.961 54.3279Z" fill="#E31E24"/>
<path d="M117.25 49.0879H118.258L117.002 54.9999H115.994L117.25 49.0879Z" fill="#E31E24"/>
<path d="M119.219 49.0879H120.227L118.971 54.9999H117.963L119.219 49.0879Z" fill="#E31E24"/>
<path d="M121.164 56.8399C120.902 56.8399 120.644 56.8159 120.388 56.7679C120.132 56.7199 119.929 56.6559 119.78 56.5759L119.948 55.7759C120.326 55.9572 120.777 56.0479 121.3 56.0479C121.764 56.0479 122.11 55.9519 122.34 55.7599C122.574 55.5732 122.75 55.2772 122.868 54.8719L123.004 54.3759C122.561 54.8026 122.036 55.0159 121.428 55.0159C121.017 55.0159 120.705 54.9146 120.492 54.7119C120.278 54.5039 120.172 54.2239 120.172 53.8719C120.172 53.7226 120.185 53.5919 120.212 53.4799L120.708 51.1599H121.716L121.244 53.3839C121.217 53.5279 121.204 53.6399 121.204 53.7199C121.204 53.8959 121.254 54.0239 121.356 54.1039C121.457 54.1839 121.62 54.2239 121.844 54.2239C122.073 54.2239 122.3 54.1706 122.524 54.0639C122.753 53.9519 122.961 53.7866 123.148 53.5679L123.66 51.1599H124.668L123.9 54.7679C123.75 55.4612 123.46 55.9786 123.028 56.3199C122.601 56.6666 121.98 56.8399 121.164 56.8399Z" fill="#E31E24"/>
<defs>
<linearGradient id="paint0_linear" x1="120.635" y1="12.7687" x2="111.706" y2="21.0427" gradientUnits="userSpaceOnUse">
<stop stop-color="#85EFF4"/>
<stop offset="0.1294" stop-color="#1FD1E4"/>
<stop offset="1" stop-color="#0066B3"/>
</linearGradient>
<linearGradient id="paint1_linear" x1="120.635" y1="12.8366" x2="111.706" y2="21.1106" gradientUnits="userSpaceOnUse">
<stop stop-color="#23E4EB"/>
<stop offset="0.1294" stop-color="#1FD1E4"/>
<stop offset="0.651" stop-color="#0066B3"/>
<stop offset="1" stop-color="#00214D"/>
</linearGradient>
<linearGradient id="paint2_linear" x1="120.426" y1="5.40776" x2="104.848" y2="19.3218" gradientUnits="userSpaceOnUse">
<stop stop-color="#85EFF4"/>
<stop offset="0.1294" stop-color="#1FD1E4"/>
<stop offset="1" stop-color="#0066B3"/>
</linearGradient>
<linearGradient id="paint3_linear" x1="120.732" y1="4.63005" x2="105.055" y2="20.564" gradientUnits="userSpaceOnUse">
<stop stop-color="#23E4EB"/>
<stop offset="0.1294" stop-color="#1FD1E4"/>
<stop offset="0.651" stop-color="#0066B3"/>
<stop offset="1" stop-color="#00214D"/>
</linearGradient>
<linearGradient id="paint4_linear" x1="106.148" y1="4.66187" x2="101.868" y2="8.83234" gradientUnits="userSpaceOnUse">
<stop stop-color="#85EFF4"/>
<stop offset="0.1294" stop-color="#1FD1E4"/>
<stop offset="1" stop-color="#0066B3"/>
</linearGradient>
<linearGradient id="paint5_linear" x1="105.777" y1="4.68862" x2="102.283" y2="8.9933" gradientUnits="userSpaceOnUse">
<stop stop-color="#23E4EB"/>
<stop offset="0.1294" stop-color="#1FD1E4"/>
<stop offset="0.651" stop-color="#0066B3"/>
<stop offset="1" stop-color="#00214D"/>
</linearGradient>
<linearGradient id="paint6_linear" x1="114.562" y1="1.03443" x2="100.585" y2="14.7742" gradientUnits="userSpaceOnUse">
<stop stop-color="#85EFF4"/>
<stop offset="0.1294" stop-color="#1FD1E4"/>
<stop offset="1" stop-color="#0066B3"/>
</linearGradient>
<linearGradient id="paint7_linear" x1="114.562" y1="1.10184" x2="100.585" y2="14.8417" gradientUnits="userSpaceOnUse">
<stop stop-color="#23E4EB"/>
<stop offset="0.1294" stop-color="#1FD1E4"/>
<stop offset="0.651" stop-color="#0066B3"/>
<stop offset="1" stop-color="#00214D"/>
</linearGradient>
</defs>
</svg>
